<?xml version="1.0" encoding="utf-8"?>
<!-- Generator: Adobe Illustrator 12.0.0, SVG Export Plug-In . SVG Version: 6.00 Build 51448)  -->
<!DOCTYPE svg PUBLIC "-//W3C//DTD SVG 1.1//EN" "http://www.w3.org/Graphics/SVG/1.1/DTD/svg11.dtd" [
	<!ENTITY ns_svg "http://www.w3.org/2000/svg">
	<!ENTITY ns_xlink "http://www.w3.org/1999/xlink">
]>
<svg  version="1.1" id="Layer_1" xmlns="&ns_svg;" xmlns:xlink="&ns_xlink;" width="276.652" height="200"
	 viewBox="0 0 276.652 200" overflow="visible" enable-background="new 0 0 276.652 200" xml:space="preserve">
<g>
	<path fill-rule="evenodd" clip-rule="evenodd" fill="#FFFFFF" d="M16.071,75.375c0,0-2.107-0.527-2.634-1.845
		c-0.264-1.054,0.264-2.898,0.264-2.898l36.096-43.21c0,0,1.054-1.845,3.425-2.898c2.899-1.318,5.533-1.318,5.533-1.318h53.75
		c26.348-24.767,64.29-23.186,64.29-23.186c55.593,0,99.857,45.582,99.857,99.858S234.232,200,176.531,200
		c-53.223,0-76.673-35.832-76.673-35.832H75.881c0,0-16.072,18.969-35.306,16.598C22.628,178.437,2.417,169.297,0,139.673v-12.656
		c2.898-39.786,27.928-51.642,27.928-51.642H16.071L16.071,75.375z"/>
	<path fill-rule="evenodd" clip-rule="evenodd" fill="#136CB5" d="M84.576,100.141c1.317,0,2.372-0.263,0,1.319
		c-1.844,1.052-2.371,3.161-3.161,5.795c-0.791,2.109-6.587,25.032-7.114,26.876c-0.527,2.371,0.264,5.005,1.317,5.795
		c0.527,0.527,1.317,1.055-0.526,1.319H61.126c-1.317,0-1.844-0.265,0-1.844c1.054-0.527,2.108-3.164,2.634-4.481l7.378-28.192
		c1.053-3.688-0.791-5.005-1.845-5.795c-0.526-0.265-0.263-0.792,0.527-0.792H84.576L84.576,100.141z"/>
	<path fill-rule="evenodd" clip-rule="evenodd" fill="#136CB5" d="M58.492,140.453c-0.264,0.792-0.264,0.792-0.791,0.792H31.88
		c-1.318,0-1.318-0.527,0-1.055c1.581-0.789,3.688-4.48,4.216-6.587l7.114-26.611c1.054-4.48-2.108-5.27-3.161-6.324
		c-0.528-0.263-0.264-0.263,0.526-0.527h17.126c2.634,0,1.317,0.792,0.264,1.319c-1.581,0.527-3.952,3.688-4.479,5.795
		c-0.791,2.109-7.377,27.403-7.904,28.982c-0.527,1.582,0,2.637,1.845,2.637c3.161,0,8.431-0.266,13.437-9.224
		c0.791-1.845,1.317-1.052,0.791,0.527C61.39,130.97,60.073,137.029,58.492,140.453L58.492,140.453z"/>
	<path fill-rule="evenodd" clip-rule="evenodd" fill="#136CB5" d="M174.422,140.19c0.79-1.582,2.636-8.696,2.897-9.748
		c0.527-1.582,0.527-2.371-0.789-0.527c-6.588,8.959-7.643,9.748-17.127,9.748c-2.107,0-2.371-1.844-1.844-3.161
		c0-0.792,1.844-7.642,3.688-14.491c0.527-2.109,2.107-2.109,2.896-2.109c1.582,0,5.009,2.109,5.009,7.904
		c0,1.845,0.525,1.055,1.053-0.527l3.688-14.753c0.527-2.372-0.264-1.317-1.58,0.262c-1.846,2.109-4.216,4.481-8.17,4.481
		c-1.053,0-1.316-1.055-0.789-2.372c0.789-3.953,1.844-8.169,2.635-10.275c0.79-2.634,1.054-2.634,3.163-2.634
		c3.688,0.263,9.484-0.792,9.484,7.639c0,2.109,0.527,2.109,1.053,0c0.791-2.634,1.845-7.376,2.108-8.693
		c0.264-1.055-0.264-0.792-1.845-0.792h-27.138c-0.527,0-1.581,0-1.054,0.527c1.845,1.319,4.479,1.319,3.161,6.587l-6.587,26.087
		c-0.264,1.841-2.634,5.794-4.478,6.584c-1.582,0.527-1.582,1.055,0,1.055h28.191C173.631,140.98,174.159,140.98,174.422,140.19
		L174.422,140.19z"/>
	<path fill-rule="evenodd" clip-rule="evenodd" fill="#136CB5" d="M198.398,104.094c0.264-1.316,1.318-2.106,2.899-1.844v-2.372
		h-15.809c-1.318,0-1.582,0.263-1.055,0.79c1.318,1.055,2.899,1.055,2.108,6.852c-0.264,2.634-5.007,21.606-6.588,26.873
		c-0.789,2.637-2.107,5.009-3.16,5.533c-1.318,0.527-2.108,1.055-0.791,1.055h17.126c0.789,0,1.053-0.263-0.791-1.317
		c-2.635-1.316-2.371-4.216-1.844-6.587s1.582-5.005,2.371-9.486c0.527-2.106,2.898-1.844,3.688,1.32
		c1.58,5.795,1.055,9.221,1.055,11.854c0,2.109,2.371,6.587,7.377,6.587c3.425,0,4.742-1.582,5.27-2.106
		c0.527,0.263,1.581,0.524,1.845,0.524c2.107,0,2.897-1.579,6.06-1.579c2.636-0.265,3.688,2.106,7.904,1.845
		c11.066,0,16.599-9.748,12.384-19.5c-2.372-5.267-7.904-11.854-9.223-15.016c-3.425-7.114,10.803-10.54,10.803,1.579
		c0,2.109,0,2.899,0.791,0.266c1.055-3.427,2.371-8.432,2.371-8.959c0.526-1.845,0.264-1.581-0.527-1.054
		c-0.264,0-3.162,0.526-4.479,0.526c-1.845-0.264-4.742-1.844-6.324-1.844c-12.383,0-13.964,13.702-9.748,20.024
		c6.587,9.221,12.911,16.862,5.271,21.344c-3.69,2.106-11.33-2.109-10.803-12.912c0.264-1.845-0.527-1.845-1.055,0.789
		c-1.845,7.38-2.899,11.33-5.27,11.33c-2.635,0.266-2.371-4.216-2.898-11.854c0-2.371-0.789-3.426-2.107-4.219
		c-1.317-1.052-1.317-1.841,0.264-2.368c5.532-1.582,10.539-5.798,10.539-11.068c0-6.587-3.161-9.221-10.275-9.221h-4.479v2.372
		c1.58-0.263,2.898,0.789,3.688,2.105c0.791,1.32,1.844,6.325-1.317,10.804c-1.582,2.371-3.425,2.898-4.479,3.426
		c-2.898,1.582-4.479,0.527-4.216-1.582L198.398,104.094L198.398,104.094z"/>
	<path fill-rule="evenodd" clip-rule="evenodd" fill="#136CB5" d="M91.163,100.141c-1.316,0-1.58,0-1.054,0.527
		c1.317,0.792,3.425,2.109,2.635,6.06l-6.851,25.821c-0.263,1.844-1.844,6.06-3.688,7.377c-1.581,1.055-0.79,1.319,0.791,1.319
		h15.019c0.79,0,2.108,0-0.527-1.582c-2.371-1.316-1.844-5.005-1.317-7.114c0.526-2.371,1.054-4.216,2.107-8.432
		c0.791-2.106,1.055-2.106,3.688-1.844c3.425,0.262,7.115-0.263,11.33-2.372c3.953-2.105,7.641-6.587,7.641-10.803
		c0.263-7.111-4.215-8.958-10.012-8.958c0,0-1.581,0-4.216,0v1.582c1.844,0,3.425,1.055,3.953,3.426
		c0.527,1.844,0,11.854-6.323,14.226c-2.899,1.32-5.27,1.055-4.743-1.051c1.054-3.427,3.953-13.968,3.953-13.968
		c0.527-2.105,1.843-2.633,3.161-2.633v-1.582H91.163L91.163,100.141z"/>
	<path fill-rule="evenodd" clip-rule="evenodd" fill="#136CB5" d="M122.517,100.141c-1.317,0-1.581,0-1.054,0.527
		c1.318,0.792,3.689,2.109,2.635,6.06l-6.85,25.821c-0.264,1.844-1.582,6.06-3.426,7.377c-2.371,1.582-1.054,1.319,0.527,1.319
		h15.018c0.791,0,1.582,0-0.263-1.319c-2.634-1.579-2.108-5.268-1.582-7.377c0.527-2.371,1.054-4.216,2.373-8.432
		c0.526-2.106,0.79-2.106,3.425-1.844c3.425,0.262,7.113-0.263,11.329-2.372c3.952-2.105,7.641-6.587,7.641-10.803
		c0.264-5.532-3.425-8.958-9.484-8.958c0,0-1.845,0-4.743,0v1.847c2.108,0,3.425,0.79,3.952,3.161c0.527,1.844,0,11.854-6.06,14.491
		c-3.162,1.316-5.27,0.789-4.743-1.316c0.79-3.164,3.688-13.702,3.688-13.702c0.527-2.109,1.845-2.898,3.163-2.634v-1.847H122.517
		L122.517,100.141z"/>
	<path fill-rule="evenodd" clip-rule="evenodd" fill="#EA1F4E" d="M202.352,154.682c0.525,7.643-1.846,21.606-6.852,28.982
		c38.205-8.169,66.66-42.419,66.66-83.259c0-20.552-6.323-37.941-18.444-52.696c-8.957,4.216-37.412,6.323-56.121,1.844
		c-16.861-3.952-25.556-8.958-28.719-11.856c-2.897,0.263-10.012,4.479-11.064,4.743c5.005,2.899,17.915,15.019,21.604,21.869
		c38.205,0,69.032,0,70.876,0s3.162,1.581,3.162,2.372c0,0.79-0.527,1.317-1.055,1.317c-4.741,0-176.793,0-210.256,0
		c-0.263,0-0.79-0.264-0.79-0.791c0-2.108,2.108-2.898,4.216-2.898c10.012,0,32.672,0,59.283,0c1.054-2.635,2.107-5.27,3.424-7.641
		c-1.581,0-58.491,0-59.809,0c-0.264,0-0.527-0.263-0.527-0.791c0-1.317,1.581-2.107,2.635-2.107c2.108,0,57.701,0,59.546,0
		c1.581-2.635,3.425-5.007,5.269-7.378c-0.79,0-57.174,0-57.964,0c-0.264,0-0.792-0.264-0.792-1.053
		c0-1.055,1.582-2.373,3.163-2.373s57.175,0,58.229,0c2.108-2.634,4.743-5.796,6.324-6.85c-1.318,0-55.331,0-56.121,0
		c-0.264,0-0.791-0.526-0.791-1.054c0-1.054,1.317-2.372,2.897-2.372c1.845,0,56.913,0,57.966,0
		c15.809-13.437,36.359-22.132,59.019-22.132c49.271,0,89.32,40.312,89.32,89.582c0,49.533-40.049,89.584-89.32,89.584
		c-28.719,0-56.121-13.964-71.93-35.043c-38.204,0-61.653,0-63.761,0c-1.844,0-2.635-1.844-2.635-2.634
		c0-0.792,0.526-1.582,1.055-1.582c4.742,0,158.613,0,192.075,0c1.845,0,1.582,0.263,1.582,1.055c0,2.106-1.582,3.161-4.48,3.161
		C218.951,154.682,214.734,154.682,202.352,154.682L202.352,154.682z"/>
	<path fill-rule="evenodd" clip-rule="evenodd" fill="#FFFFFF" d="M164.145,35.59c7.643,6.06,23.714,11.065,40.841,12.12
		c17.126,1.054,33.198-2.635,35.833-3.688c-1.581-2.108-10.275-10.275-12.911-11.857C213.417,27.422,177.583,29.002,164.145,35.59
		L164.145,35.59z"/>
	<path fill-rule="evenodd" clip-rule="evenodd" fill="#FFFFFF" d="M160.458,31.9c21.078-8.694,51.643-7.114,58.229-5.796
		c-15.019-8.695-35.308-13.701-59.02-9.222C155.979,21.099,156.505,29.793,160.458,31.9L160.458,31.9z"/>
	<path fill-rule="evenodd" clip-rule="evenodd" fill="#FFFFFF" d="M136.218,154.682c-2.371,0-23.977,0-25.03,0
		c1.317,2.372,10.275,11.065,12.911,12.647C127.26,165.747,135.164,156.788,136.218,154.682L136.218,154.682z"/>
	<path fill-rule="evenodd" clip-rule="evenodd" fill="#FFFFFF" d="M198.134,154.682c-5.005,0-21.34,0-35.831,0
		c0.525,6.85-1.846,24.239-3.952,28.982c7.903,2.106,20.551,2.634,31.353,1.055C192.077,182.348,198.134,168.908,198.134,154.682
		L198.134,154.682z"/>
	<path fill-rule="evenodd" clip-rule="evenodd" fill="#FFFFFF" d="M158.351,154.682c-1.055,0-15.81,0-17.127,0
		c-1.318,2.372-11.066,13.702-13.702,15.281c6.587,5.008,20.815,11.592,26.613,12.646
		C156.769,177.339,158.876,162.059,158.351,154.682L158.351,154.682z"/>
	<path fill-rule="evenodd" clip-rule="evenodd" fill="#FFFFFF" d="M99.858,64.309c3.689,0,6.323,0,10.013,0
		c1.844-2.108,11.065-11.33,13.173-12.646c-2.898-2.108-9.485-4.216-12.383-4.479C107.498,50.081,101.175,60.355,99.858,64.309
		L99.858,64.309z"/>
	<path fill-rule="evenodd" clip-rule="evenodd" fill="#FFFFFF" d="M115.667,64.309c6.586,0,15.019,0,21.605,0
		c-1.054-2.371-8.167-8.958-10.275-10.276C124.362,55.614,117.774,61.938,115.667,64.309L115.667,64.309z"/>
	<path fill-rule="evenodd" clip-rule="evenodd" fill="#FFFFFF" d="M143.069,64.309c7.112,0,13.437,0,20.287,0
		c-3.161-6.324-16.599-18.181-20.287-19.761c-1.845,0.264-10.803,5.797-11.857,7.114C134.637,53.77,140.697,60.093,143.069,64.309
		L143.069,64.309z"/>
	<path fill-rule="evenodd" clip-rule="evenodd" fill="#FFFFFF" d="M126.996,48.763c1.054-1.317,8.167-6.06,10.539-6.85
		c-2.898-2.372-13.701-5.797-16.863-5.797c-2.107,2.108-6.06,6.06-7.114,7.377C116.194,43.757,124.098,46.655,126.996,48.763
		L126.996,48.763z"/>
	<path fill-rule="evenodd" clip-rule="evenodd" fill="#FFFFFF" d="M125.152,32.955c5.006,0.263,14.228,4.742,17.39,6.586
		c2.107-1.581,11.066-5.533,12.91-6.323c-2.898-1.844-3.425-11.33-1.055-15.018C146.494,20.308,132.266,26.632,125.152,32.955
		L125.152,32.955z"/>
	<polygon fill-rule="evenodd" clip-rule="evenodd" fill="#136CB5" points="97.486,76.692 100.384,76.692 98.276,86.968 
		104.337,86.968 103.81,89.339 94.852,89.339 97.486,76.692 	"/>
	<path fill-rule="evenodd" clip-rule="evenodd" fill="#136CB5" d="M115.667,76.429c3.425,0,5.533,1.844,5.533,5.534
		c0,3.951-2.371,7.64-6.586,7.64c-3.689,0-5.533-2.108-5.533-5.533C109.08,80.117,111.451,76.429,115.667,76.429L115.667,76.429z"/>
	<path fill-rule="evenodd" clip-rule="evenodd" fill="#136CB5" d="M127.26,85.123c0,1.845,1.054,2.372,2.635,2.372
		c1.317,0,2.371-0.526,2.371-1.844c0-1.317-1.581-1.581-3.162-1.845c-1.582-0.527-3.162-1.317-3.162-3.425
		c0-2.898,2.634-3.952,5.006-3.952c2.635,0,4.742,1.317,4.742,3.952h-2.634c0-1.317-1.054-1.844-2.108-1.844
		c-1.053,0-2.372,0.527-2.372,1.581c0,1.318,2.108,1.582,3.162,1.845c1.845,0.526,3.162,1.316,3.162,3.424
		c0,3.162-2.634,4.216-5.005,4.216c-3.425,0-5.271-1.581-5.271-4.479H127.26L127.26,85.123z"/>
	<polygon fill-rule="evenodd" clip-rule="evenodd" fill="#136CB5" points="156.242,76.692 159.14,76.692 161.249,89.339 
		158.351,89.339 158.087,86.441 153.344,86.441 151.763,89.339 148.865,89.339 156.242,76.692 	"/>
	<polygon fill-rule="evenodd" clip-rule="evenodd" fill="#136CB5" points="167.572,76.692 170.469,76.692 173.895,85.65 
		173.895,85.65 175.74,76.692 178.111,76.692 175.476,89.339 172.842,89.339 169.416,80.38 169.416,80.38 167.572,89.339 
		164.936,89.339 167.572,76.692 	"/>
	<path fill-rule="evenodd" clip-rule="evenodd" fill="#136CB5" d="M190.758,88.021L190.758,88.021
		c-0.791,1.055-2.108,1.581-3.163,1.581c-3.425,0-5.532-2.108-5.532-5.533c0-3.952,2.635-7.641,6.851-7.641
		c2.897,0,5.269,1.317,5.269,4.479h-2.896c0-1.581-1.055-2.108-2.372-2.108c-2.898,0-4.216,2.899-4.216,5.27
		c0,1.581,0.791,3.162,2.897,3.162c2.108,0,2.899-1.054,3.427-2.635h-2.899l0.527-2.107h5.269l-1.58,6.85h-1.58V88.021
		L190.758,88.021z"/>
	<polygon fill-rule="evenodd" clip-rule="evenodd" fill="#136CB5" points="200.244,76.692 209.728,76.692 209.201,79.063 
		202.614,79.063 201.825,81.699 208.148,81.699 207.884,83.806 201.561,83.806 200.77,86.968 207.621,86.968 207.357,89.339 
		197.609,89.339 200.244,76.692 	"/>
	<polygon fill-rule="evenodd" clip-rule="evenodd" fill="#136CB5" points="214.734,76.692 217.369,76.692 215.261,86.968 
		221.321,86.968 220.795,89.339 212.1,89.339 214.734,76.692 	"/>
	<polygon fill-rule="evenodd" clip-rule="evenodd" fill="#136CB5" points="226.591,76.692 236.076,76.692 235.55,79.063 
		228.962,79.063 228.435,81.699 234.496,81.699 234.232,83.806 227.908,83.806 227.119,86.968 234.232,86.968 233.706,89.339 
		223.956,89.339 226.591,76.692 	"/>
	<path fill-rule="evenodd" clip-rule="evenodd" fill="#136CB5" d="M241.346,85.123c0,1.845,1.053,2.372,2.635,2.372
		c1.054,0,2.37-0.526,2.37-1.844c0-1.317-1.58-1.581-3.161-1.845c-1.58-0.527-3.162-1.317-3.162-3.425
		c0-2.898,2.635-3.952,5.007-3.952c2.635,0,4.743,1.317,4.743,3.952h-2.636c0-1.317-1.053-1.844-2.371-1.844
		c-1.055,0-2.108,0.527-2.108,1.581c0,1.318,2.108,1.582,2.899,1.845c2.107,0.526,3.425,1.316,3.425,3.424
		c0,3.162-2.636,4.216-5.006,4.216c-3.426,0-5.27-1.581-5.27-4.479H241.346L241.346,85.123z"/>
	<path fill-rule="evenodd" clip-rule="evenodd" fill="#FFFFFF" d="M114.613,87.231c2.635,0,3.952-2.898,3.952-5.269
		c0-1.582-0.791-3.163-2.898-3.163c-2.635,0-3.952,2.899-3.952,5.27C111.715,85.65,112.505,87.231,114.613,87.231L114.613,87.231z"
		/>
	<polygon fill-rule="evenodd" clip-rule="evenodd" fill="#FFFFFF" points="154.397,84.333 157.824,84.333 157.296,79.59 
		157.296,79.59 154.397,84.333 	"/>
	<path fill-rule="evenodd" clip-rule="evenodd" fill="#136CB5" d="M26.611,150.201c-6.06-15.809,0.527-42.157,12.383-58.491
		c13.701-19.234,38.468-16.863,42.947,3.161c0.527,2.898,1.054,1.845,1.317,0.528c0.264-1.055,3.952-14.492,4.215-15.546
		c0.264-1.054,0.527-2.634-0.526-2.372c-2.372,0.527-5.533,0.527-11.33-0.526c-2.634-0.527-6.586-3.162-16.863-3.162
		c-26.875,0-48.479,25.558-49.27,55.332c-0.527,25.291,13.964,40.837,30.036,41.364c13.174,0.527,21.87-7.377,28.983-15.809H62.18
		C48.216,170.228,32.407,165.747,26.611,150.201L26.611,150.201z"/>
</g>
</svg>
