<svg xmlns="http://www.w3.org/2000/svg" width="201.6" height="151.2" viewBox="0 0 201.6 151.2"><path fill="#AE864A" d="M105.926 11.047c.391-1.863 2.383-4.464 5.243-4.464s4.854 2.08 4.854 4.204-1.474 3.813-3.597 3.813-2.73-1.43-2.73-1.863.261-1.083 1.04-1.083.867.65 1.777.65 1.213-.867 1.213-1.517-.649-1.863-2.427-1.863-3.293 1.993-3.293 3.684.736 3.987 4.637 3.987 3.9-2.773 10.747-2.773l11.094 5.547c18.287 2.687 40.864 10.27 49.878 14.43s11.614 11.181 11.614 15.211v11.527h-.606s1.04 1.343 1.04 4.16v7.541c0 4.724-3.25 11.05-9.577 13.693-4.247 6.283-8.797 6.934-8.797 6.934l1.126.217c-5.027 6.89-10.963 7.367-10.963 7.367l1.126.477c-6.24 5.547-11.873 5.851-11.873 5.851-7.28 22.101-27.908 40.604-56.033 40.604-30.118 0-50.225-21.451-56.075-40.519-7.15-1.04-11.917-5.894-11.917-5.894l.78-.563c-6.457-1.213-10.704-7.324-10.704-7.324l1.083-.26c-6.5-2.123-8.451-6.803-8.451-6.803-5.07-1.3-8.624-7.367-8.624-8.494v-13.391s-1.17-1.43-1.17-3.856l1.213-4.377v-6.197s-1.17-.867-1.17-3.077v-6.89c17.161-8.797 37.398-16.337 61.622-20.324 0 0 4.594-5.547 11.137-5.547 6.11 0 7.324 2.817 10.66 2.817 2.037 0 4.811-.606 4.811-3.813 0-2.427-1.647-3.987-3.164-3.987s-2.557 1.343-2.557 1.95.606 1.517 1.3 1.517.954-.65 1.517-.65 1.17.52 1.17 1.126-.78 1.777-2.817 1.777-3.423-1.733-3.423-3.813 2.037-4.247 4.637-4.247c4.247 0 5.46 4.507 5.46 4.507l4.637-4.854 4.552 4.852zm12.134 6.327s8.667.434 12.523 1.3c-3.727-2.86-8.276-3.424-12.523-1.3zm-46.022 1.343s6.847-.953 12.61-1.343c-4.854-2.037-9.144-1.344-12.61 1.343z"/><path fill="#162047" d="M101.313 9.658c-2.799 2.621-4.11 4.616-4.199 6.88 0 0-2.561.447-3.097 2.8-25.792.745-51.317 6.761-74.965 17.037v1.4s-1.667-.685-2.561-.298l-7.684 3.723v4.586c0 2.383 1.132 2.889 1.132 2.889v8.161s-1.132 1.638-1.132 3.484c0 2.025 1.132 2.681 1.132 2.681v14.059c1.638 3.604 5.152 7.715 12.568 7.596 0 0-1.25.924-3.455 1.847 0 0 3.038 5.242 11.675 5.033l-3.872 2.024s4.05 5.54 12.896 5.391l-3.216 1.757s4.735 4.29 10.9 4.171c2.562 11.437 18.436 40.029 54.116 40.029 25.255 0 46.552-16.353 53.849-39.852 0 0 6.554-.505 10.753-4.377l-3.246-1.697s7.953.535 12.837-5.511l-4.08-1.995s7.894.743 11.884-4.975l-3.396-1.787c9.322.148 13.85-7.773 13.85-12.449v-7.327c0-4.349-3.604-9.322-3.604-9.322l3.187 1.399v-8.19s-3.991-9.769-9.263-12.241-35.919-16.173-75.56-17.305c0 0-.328-1.906-3.098-2.77-.236-3.246-2.479-4.946-4.351-6.851z"/><path fill="#D71F33" d="M101.347 26.874c.804-.238.625-1.221.625-1.221s.983-.089.983-.477c0-.745-.804-.596-1.042-1.459h2.145v-1.072h-.864c-.119-.625.149-1.43.923-1.43.775 0 1.162.536.774 1.311 1.34-.179 1.608-1.013 1.608-1.757s-.447-1.876-1.877-1.876-2.263 1.608-2.322 3.813h-.387c-.18-3.306 1.311-3.961 1.311-5.689l-1.848-3.693h-.029s-1.847 1.965-1.847 3.693 1.489 2.383 1.311 5.689h-.387c-.06-2.204-.893-3.813-2.323-3.813s-1.876 1.132-1.876 1.876.269 1.579 1.608 1.757c-.387-.774 0-1.311.774-1.311s1.042.805.923 1.43h-.864v1.072h2.145c-.238.864-1.042.715-1.042 1.459 0 .387.983.477.983.477s-.178.983.625 1.221h-.03zm-18.115 84.371s-5.15 2.328-11.44 2.328l-11.144-1.387 3.293-2.353s-6.761.545-11.366-1.09c4.655 12.06 20.429 32.538 48.461 32.538 15.625 0 37.739-6.836 49.031-32.563 0 0-2.377 1.634-11.168 1.089l3.269 2.525s-3.59 1.04-11.168 1.04-8.865-1.239-11.218-2.13c-2.922 9.633-11.515 13.893-18.547 13.893-8.666.002-16.59-6.437-18.003-13.89z"/><path fill="#fff" d="M96.214 25.203v-.506s-1.338-.803-2.171-2.26c-32.447.832-61.118 11.45-63.378 12.461l-1.814 3.688c16.239-6.247 40.091-12.73 67.363-13.383zm10.313 0v-.506s1.338-.803 2.172-2.26c32.447.832 63.056 12.252 65.316 13.263 2.26 1.011 1.814 3.688 1.814 3.688-16.238-6.246-40.178-13.324-69.302-14.185zm-5.178 46.927c.49 0 .382 3.406.654 4.904s.98 1.362 1.471.49c1.989-3.679 3.651-4.767 5.204-4.304-.437.545-.409 1.063-.518 2.534-.109 1.472-1.635 2.343-2.697 2.343s-1.744 1.525-.817 2.834c1.444-1.879 2.942-2.97 4.413-2.807 0 0 .817-1.58.817-4.086 0-4.986-2.643-7.274-2.643-7.274l-.327.49c-1.607-.735-3.078-2.016-5.53-2.016h-.055c-2.452 0-3.923 1.281-5.531 2.016l-.327-.49s-2.643 2.288-2.643 7.274c0 2.506.817 4.086.817 4.086 1.471-.163 2.969.928 4.413 2.807.926-1.309.245-2.834-.817-2.834s-2.588-.871-2.697-2.343c-.109-1.471-.082-1.989-.518-2.534 1.553-.463 3.215.625 5.204 4.304.49.872 1.198 1.008 1.471-.49s.165-4.904.656-4.904z"/><path fill="#D71F33" d="M96.199 75.291l-.572.218s.027 1.307.735 1.471l.981.055v-.381c.001-.001-1.307.272-1.144-1.363zm10.298 0l.571.218s-.026 1.307-.734 1.471c-.709.164-.981.055-.981.055v-.381c0-.001 1.307.272 1.144-1.363zm-10.815 7.41c-.463.272-.408 1.146.327 4.169l2.779 13.513s-.927-13.403-1.036-14.957-1.008-2.725-2.07-2.725zm11.336 0c.463.272.408 1.146-.327 4.169l-2.778 13.513s.926-13.403 1.035-14.957 1.007-2.725 2.07-2.725zm-5.565 36.341c1.035-2.234 1.672-3.05 1.672-3.05s-.898-1.635-.898-8.255.735-13.947 1.226-19.614l.272-5.912h-.163c-.109.626-.709 1.935-.709 1.935v-2.942s-.845-1.635-1.308-1.635h-.278c-.463 0-1.308.708-1.308 1.635v2.942s-.6-1.309-.708-1.935h-.164s-.218.245.272 5.912 1.226 12.994 1.226 19.614l-.899 8.255s.708.844 1.744 3.078l.023-.028z"/><path fill="#fff" d="M85.963 60.129c-10.57 0-42.73 6.113-67.297 18.363 0 0 .447.896 3.448.896 1.993 0 2.911-.695 7.368-2.441 4.457-1.747 28.62-11.107 52.717-12.965 0 0-2.352 4.748-2.352 10.615 0 10.683 8.174 15.812 9.697 16.953l.851-.873c-5.33-4.882-7.48-9.563-7.48-14.557 0-6.495 4.099-12.43 5.129-13.751s.854-2.24-2.081-2.24zm30.723 0c10.57 0 42.73 6.113 67.297 18.363 0 0-.447.896-3.448.896-1.993 0-2.911-.695-7.368-2.441-4.456-1.747-28.619-11.107-52.717-12.965 0 0 2.352 4.748 2.352 10.615 0 10.683-8.174 15.812-9.697 16.953l-.851-.873c5.33-4.882 7.479-9.563 7.479-14.557 0-6.495-4.099-12.43-5.129-13.751-1.03-1.322-.854-2.24 2.082-2.24z"/><path fill="#AE864A" d="M75.304 70.294c-13.205 1.948-24.624 4.695-36.441 8.804 0 0 1.227 3.655 7.522 3.655 4.962 0 6.616-1.921 28.705-6.75 0 0-.079-2.988.214-5.709zm1.734 13.978s-.907-2.4-1.574-5.148c-10.324 1.974-22.97 5.762-29.105 8.243 0 0 2.588 3.015 8.217 3.015 4.268 0 6.322-1.654 22.462-6.11zm4.055 5.871s-1.921-1.921-2.774-3.602c-8.243 2.721-18.594 6.242-22.542 7.736 0 0 1.734 2.348 6.109 2.348 2.96 0 6.482-1.228 19.207-6.482zm5.362 4.081s-1.813-.988-3.388-2.321c-6.323 2.802-13.899 6.162-16.567 7.63 0 0 1.387 1.067 5.815 1.067 3.869 0 8.511-2.135 14.14-6.376zm-2.721 4.56s-4.882 3.149-6.937 4.723c0 0 1.814.613 5.683.187 0-.001.534-2.802 1.254-4.91zm43.655-28.49c13.205 1.948 24.623 4.695 36.441 8.804 0 0-1.227 3.655-7.523 3.655-4.961 0-6.615-1.921-28.705-6.75 0 0 .08-2.988-.213-5.709zm-1.735 13.978s.907-2.4 1.574-5.148c10.324 1.974 22.97 5.762 29.105 8.243 0 0-2.588 3.015-8.217 3.015-4.267 0-6.321-1.654-22.462-6.11zm-4.054 5.871s1.921-1.921 2.774-3.602c8.243 2.721 18.595 6.242 22.542 7.736 0 0-1.734 2.348-6.109 2.348-2.961 0-6.483-1.228-19.207-6.482zm-5.362 4.081s1.813-.988 3.387-2.321c6.323 2.802 13.899 6.162 16.567 7.63 0 0-1.387 1.067-5.815 1.067-3.869 0-8.51-2.135-14.139-6.376zm2.721 4.56s4.882 3.149 6.936 4.723c0 0-1.814.613-5.682.187 0-.001-.534-2.802-1.254-4.91zm-23.522-7.562c-3.792.912-5.21 5.799-3.426 10.481s4.115 8.19 4.359 13.076c0 0 .243.183 1.987.446 0 0 .729-2.594.729-5.291 0-2.733-2.25-11.389-3.649-18.712z"/><path fill="#fff" d="M96.6 96.861c-.408-1.888-.812-3.806-1.163-5.64-3.377.813-4.872 4.776-3.897 8.942 0 .001 1.681-2.249 5.06-3.302z"/><path fill="#AE864A" d="M88.949 95.788c-3.082 4.136-3.487 6.304-3.487 7.562s2.128 7.218 8.434 10.441c-1.399-8.047-5.271-9.243-4.947-18.003z"/><path fill="#fff" d="M89.7 102.319c-.532-1.721-.854-3.742-.751-6.531-3.082 4.136-3.487 6.304-3.487 7.562 0 .662.589 2.628 2.067 4.811.001-.001.408-3.671 2.171-5.842z"/><path fill="#AE864A" d="M85.361 109.149c.933 3.73 2.412 7.237 6.751 10.319 0 0 1.581-.952 1.946-3.061-3.487-1.175-5.96-3.75-8.697-7.258z"/><path fill="#fff" d="M87.562 111.795c-.731-.807-1.456-1.691-2.201-2.646.68 2.721 1.651 5.322 3.81 7.727-.001 0-1.213-2.416-1.609-5.081z"/><path fill="#AE864A" d="M99.025 117.767s-1.419-.204-2.696-.487c-.264.913-.345 1.703-2.129 3.406 0 0 2.312 1.398 5.92 1.581.142-2.473-.121-2.675-1.095-4.5zm8.319-26.545c3.791.912 5.21 5.799 3.426 10.481s-4.115 8.19-4.359 13.076c0 0-.242.183-1.986.446 0 0-.729-2.594-.729-5.291-.002-2.733 2.248-11.389 3.648-18.712z"/><path fill="#fff" d="M106.181 96.861c.408-1.888.812-3.806 1.163-5.64 3.377.813 4.871 4.776 3.896 8.942 0 .001-1.681-2.249-5.059-3.302z"/><path fill="#AE864A" d="M113.831 95.788c3.081 4.136 3.487 6.304 3.487 7.562s-2.129 7.218-8.434 10.441c1.399-8.047 5.271-9.243 4.947-18.003z"/><path fill="#fff" d="M113.08 102.319c.532-1.721.854-3.742.751-6.531 3.081 4.136 3.487 6.304 3.487 7.562 0 .662-.59 2.628-2.068 4.811 0-.001-.406-3.671-2.17-5.842z"/><path fill="#AE864A" d="M117.42 109.149c-.934 3.73-2.412 7.237-6.752 10.319 0 0-1.58-.952-1.945-3.061 3.486-1.175 5.96-3.75 8.697-7.258z"/><path fill="#fff" d="M115.219 111.795c.731-.807 1.457-1.691 2.201-2.646-.68 2.721-1.651 5.322-3.811 7.727 0 0 1.213-2.416 1.61-5.081z"/><path fill="#AE864A" d="M103.755 117.767s1.419-.204 2.696-.487c.264.913.345 1.703 2.129 3.406 0 0-2.312 1.398-5.92 1.581-.142-2.473.121-2.675 1.095-4.5z"/><path fill="#fff" d="M22.287 38.366v20.134l-5.495-17.7-4.749 2.237v1.845c0 1.04 1.138.922 1.138.922v11.244s-1.177.745-1.177 1.942c0 1.374 1.197 1.119 1.197 1.119v15.994l3.238-1.629v-20.252l5.436 17.583s.118.354 2.218-.647c1.472-.628 1.491-1.119 1.491-1.884v-14.796s1.08-.667 1.08-1.785l-1.099-1.06v-11.421s1.197-1.217 1.197-2.041v-1.747l-4.475 1.942zm5.867 3.18v2.237s.333.432 1.119.589v8.772s-1.119.706-1.119 1.942l1.138 1.099v12.933s9.303-3.316 10.5-3.709 1.06-1.237 1.06-1.786v-7.497s-3.375.667-3.611 2.021v4.867l-4.259 1.55v-9.517l5.515-2.08v-3.179l-5.515 1.943v-8.634l4.258-1.59v4.69s1.04.844 3.591-.196v-8.085s-.647-.746-2.001-.275l-10.676 3.905zm19.212-6.396l-4.631 1.354v1.806s1.256.53 1.452 2.08l.883 7.712s-.981.53-.981 1.589c0 1.236 1.413 1.158 1.413 1.158s1.433 11.676 1.472 11.931.274.412 2.806-.255 3.002-.373 3.336-2.198c.353-2.021 3.199-18.349 3.199-18.349s2.983 16.779 3.081 17.446.667.609 3.218.157 2.905-.53 3.042-1.727l1.354-11.931s1.374-.489 1.374-1.667l-.922-1.276.922-8.929s1.393-1.315 1.393-1.845v-1.904l-4.788 1.021-2.728 24.647s-3.67-20.449-3.944-21.959c-.274-1.727-3.905-1.06-4.16.51l-3.925 24.178-2.866-23.549zm47.394-2.413v7.398s1.393.059 1.393 1.433l-1.433 1.511v7.889s-3.454 5.77-7.398 5.77-6.181-2.041-6.181-4.69v-8.046s-1.295-.118-1.295-1.413l1.315-1.51v-7.398s2.904-5.613 7.516-5.613c3.806-.001 6.083 2.137 6.083 4.669zm-6.614-1.472c-2.159 0-3.14 1.315-3.14 2.806v16.954s.825 2.473 2.728 2.473 3.179-1.432 3.179-2.728v-17.152s-1.746-2.353-2.767-2.353zm8.752-1.825v-1.452h8.556s5.672 2.041 5.672 5.436v4.631l-2.12 3.395s2.14 1.295 2.14 4.042v7.437s1.354.589 1.354 1.394v1.923s-1.138-.177-2.865-.157-2.394-.51-2.394-1.982v-8.93s-1.55-2.08-3.336-2.08-1.923.294-1.923.589v12.383h-3.788v-13.05s-1.217-.196-1.217-1.472c0-1.079 1.217-1.452 1.217-1.452v-8.792s-1.296-.823-1.296-1.863zm8.34 1.727h-2.59s-.647.294-.647.824v7.418s.392.628.902.628h2.355s1.981-.962 1.981-2.434v-4.376s-.843-2.06-2.001-2.06zm8.282-2.865v1.531c0 .961 1.276 1.786 1.276 1.786v8.89s-1.276.136-1.276 1.392l1.276 1.511v12.991s7.024.373 10.204.883c1.767.314 1.707-.373 1.707-1.178v-9.773s-3.729-.942-3.729.471v7.104s-3.062.039-4.278-.628v-21.408s1.237-.765 1.237-1.668v-1.492l-6.417-.412zm14.698 1.355v1.472c0 1.472 1.335 2.061 1.335 2.061v8.792s-1.315.157-1.315 1.295c0 1.295 1.296 1.629 1.296 1.629v12.972s9.146 1.413 10.48 1.766 1.394-.431 1.394-1.393v-7.241s-3.788-1.099-3.788.157v4.867l-4.258-.726v-9.636s2.708.235 5.612 1.04v-3.14s-.274-.471-5.672-1.158v-8.104s.354-.647 1.472-.451l2.846.549v4.278s1.138 1.883 3.807 2.119v-8.203s.001-.667-2.354-1.119l-10.855-1.826zm23.02 4.475c1.394.373 2.865.491 3.199 2.885l1.727 10.439c.608.412 1.374.962 1.374 1.884l-.903 1.217 2.336 13.776-3.905-1.197-.942-7.261c-1.59-.902-5.455-1.551-5.455-1.551l-1.178 6.947-3.769-.903 2.493-12.382s-.981-.766-.981-1.806l1.53-1.059 1.609-8.537c-1.079-.981-1.138-1.334-1.138-2.001v-1.433s2.61.61 4.003.982zm.177 4.141l-2.237 12.696s-.059.432 4.416 1.295l-2.179-13.991zm9.344-1.589v1.786c0 1.452 1.217 1.962 1.217 1.962v8.851s-1.236.059-1.236 1.099c0 1.236 1.256 1.747 1.256 1.747v13.109l3.355 1.001v-17.898s5.575 19.409 5.634 19.664 3.669 2.041 3.669.785v-12.246s1.061.041 1.061-.98c0-1.178-1.021-1.766-1.021-1.766v-8.968s1.158-.648 1.158-1.158v-1.629l-4.475-1.727v18.525s-5.005-18.231-5.319-19.448-1.433-1.354-2.826-1.805l-2.473-.904zm29.632 14.661v-3.493c0-4.396-5.357-8.772-9.381-8.772-1.785 0-3.062 1.157-3.062 3.473v5.71s1.041 3.964 4.416 7.398c-.255 1.844.49 2.923 2.551 2.884 0 0 2.041 2.178 2.041 3.905v7.497s-1.471 1.628-3.218.569-2.375-2.335-2.375-3.297v-2.1s-1.923-2.139-3.729-2.551v3.002c0 5.417 6.378 9.106 10.048 9.106 2.649 0 3.042-1.904 3.042-3.375v-7.417s-2.788-6.083-4.161-7.438c.216-1.394-.549-2.708-2.315-2.688 0 0-2.669-2.767-2.669-4.003v-5.632s.785-1.59 2.434-.922l2.512 2.178v2.159s1.119 2.885 3.866 3.807zm-116.735 68.228c1.813 1.797-.984 4.203-2.328 2.953l-2.156-2.094-1.594 1.688-1.156-1.109 4.156-4.266s1.266 1.031 3.078 2.828zm-1.078.5l-1.656-1.516-1.031 1.094s1.125 1.094 1.672 1.594 1.765-.453 1.015-1.172zm10.016 5.688l-4.781-2.907-3.219 5.188 4.969 3.016.64-1.016-3.672-2.25.703-1.094 3.344 2.047.61-1.047-3.36-2 .656-1.078 3.516 2.109zm5.125 2.093l-1.594-.562-2.094 5.609 4.797 1.828.438-1.25-3.235-1.156zm8.219 1.735l-1.625-.047-.985 6 1.641.203zm9.421 2.469l1.641-.5s-.75-1.734-3.438-1.734c-2.484 0-3.797 1.313-3.797 3.344s1.469 3.172 3.609 3.172 3.219-.781 3.766-2.484h-1.75s-.375 1.219-1.906 1.219-2.125-1.375-2.125-2.094.703-2 2.125-2l1.875 1.077zm13.063.984l-1.469.766-1.031-1.125-2.813.813-.078 1.328-1.641.438.859-6.563 1.641-.578 4.532 4.921zm-4.844-3.094l-.25 2.453 1.938-.563-1.625-1.875"/><path fill="#fff" d="M121.047 125.151l-1.281.828 3.187 5.313 1.25-.938-2.328-3.484 5.5 1.719 1.234-.828-3.218-5.266-1.25.922 2.265 3.437zm11.953-7.031l.781-1.188s-1.203-.563-2.375.188c-1.174.751-1.578 1.391-1.938 2.031-.891 1.359.766 3.484 2.453 2.328s2.313-1.859 2.797-1.359-.578 2.547-2.766 2.313l-.594 1.359s1.875.719 3.672-1.297 1.578-3.875-.453-4.047c-1.641-.016-3.156 2.609-3.891 1.781s1.314-2.437 2.314-2.109z"/></svg>